<?xml version="1.0" encoding="UTF-8"?>
<svg xmlns="http://www.w3.org/2000/svg" xmlns:xlink="http://www.w3.org/1999/xlink" width="67pt" height="20pt" viewBox="0 0 67 20" version="1.1">
    <defs>
        <linearGradient id="linear0" gradientUnits="userSpaceOnUse" x1="1682.1077" y1="1339.4783" x2="1624.2924" y2="1309.6345"
            gradientTransform="matrix(0.143466,0,0,-0.281172,-230.549708,380.977171)">
            <stop offset="0" style="stop-color:rgb(0%,62.745098%,100%);stop-opacity:1;" />
            <stop offset="0.00657" style="stop-color:rgb(0%,63.137255%,100%);stop-opacity:1;" />
            <stop offset="0.2601" style="stop-color:rgb(0%,74.509804%,100%);stop-opacity:1;" />
            <stop offset="0.5122" style="stop-color:rgb(0%,82.352941%,100%);stop-opacity:1;" />
            <stop offset="0.7604" style="stop-color:rgb(0%,87.45098%,100%);stop-opacity:1;" />
            <stop offset="1" style="stop-color:rgb(0%,89.019608%,100%);stop-opacity:1;" />
        </linearGradient>
        <linearGradient id="linear1" gradientUnits="userSpaceOnUse" x1="1712.6624" y1="1274.8376" x2="1606.5613" y2="1274.8376"
            gradientTransform="matrix(0.112714,0,0,-0.09601,-176.317946,132.397145)">
            <stop offset="0" style="stop-color:rgb(100%,87.843137%,0%);stop-opacity:1;" />
            <stop offset="0.4087" style="stop-color:rgb(100%,74.117647%,0%);stop-opacity:1;" />
            <stop offset="0.7754" style="stop-color:rgb(100%,64.705882%,0%);stop-opacity:1;" />
            <stop offset="1" style="stop-color:rgb(100%,61.176471%,0%);stop-opacity:1;" />
        </linearGradient>
        <linearGradient id="linear2" gradientUnits="userSpaceOnUse" x1="1707.4414" y1="1290.0475" x2="1646.682" y2="1211.2225"
            gradientTransform="matrix(0.185125,0,0,-0.144358,-303.818729,197.377162)">
            <stop offset="0" style="stop-color:rgb(100%,22.745098%,26.666667%);stop-opacity:1;" />
            <stop offset="1" style="stop-color:rgb(76.470588%,6.666667%,38.431373%);stop-opacity:1;" />
        </linearGradient>
        <linearGradient id="linear3" gradientUnits="userSpaceOnUse" x1="1660.6357" y1="1365.6676" x2="1687.767" y2="1330.4501"
            gradientTransform="matrix(0.185125,0,0,-0.144283,-303.818729,197.132072)">
            <stop offset="0" style="stop-color:rgb(19.607843%,62.745098%,44.313725%);stop-opacity:1;" />
            <stop offset="0.0685" style="stop-color:rgb(17.647059%,65.490196%,44.313725%);stop-opacity:1;" />
            <stop offset="0.4762" style="stop-color:rgb(8.235294%,81.176471%,45.490196%);stop-opacity:1;" />
            <stop offset="0.8009" style="stop-color:rgb(2.352941%,90.588235%,45.882353%);stop-opacity:1;" />
            <stop offset="1" style="stop-color:rgb(0%,94.117647%,46.27451%);stop-opacity:1;" />
        </linearGradient>
        <filter id="alpha" filterUnits="objectBoundingBox" x="0%" y="0%" width="100%" height="100%">
            <feColorMatrix type="matrix" in="SourceGraphic" values="0 0 0 0 1 0 0 0 0 1 0 0 0 0 1 0 0 0 1 0" />
        </filter>
        <mask id="mask0">
            <g filter="url(#alpha)">
                <rect x="0" y="0" width="67" height="20" style="fill:rgb(0%,0%,0%);fill-opacity:0.2;stroke:none;" />
            </g>
        </mask>
        <clipPath id="clip1">
            <rect x="0" y="0" width="67" height="20" />
        </clipPath>
        <g id="surface5" clip-path="url(#clip1)">
            <path style=" stroke:none;fill-rule:evenodd;fill:rgb(0%,0%,0%);fill-opacity:1;"
                d="M 13.363281 12.066406 L 6.191406 16.1875 C 5.789062 16.421875 5.433594 16.40625 5.203125 16.191406 L 5.164062 16.230469 L 5.203125 16.265625 C 5.433594 16.476562 5.789062 16.492188 6.191406 16.261719 L 13.410156 12.109375 C 13.410156 12.109375 13.363281 12.066406 13.363281 12.066406 Z M 13.363281 12.066406 " />
        </g>
        <mask id="mask1">
            <g filter="url(#alpha)">
                <rect x="0" y="0" width="67" height="20" style="fill:rgb(0%,0%,0%);fill-opacity:0.121569;stroke:none;" />
            </g>
        </mask>
        <clipPath id="clip2">
            <rect x="0" y="0" width="67" height="20" />
        </clipPath>
        <g id="surface8" clip-path="url(#clip2)">
            <path style=" stroke:none;fill-rule:evenodd;fill:rgb(0%,0%,0%);fill-opacity:1;"
                d="M 15.820312 10.648438 L 13.355469 12.066406 L 13.398438 12.109375 L 15.816406 10.722656 C 16.160156 10.523438 16.332031 10.261719 16.332031 10 C 16.3125 10.238281 16.136719 10.464844 15.820312 10.648438 Z M 15.820312 10.648438 " />
        </g>
        <mask id="mask2">
            <g filter="url(#alpha)">
                <rect x="0" y="0" width="67" height="20" style="fill:rgb(0%,0%,0%);fill-opacity:0.25098;stroke:none;" />
            </g>
        </mask>
        <clipPath id="clip3">
            <rect x="0" y="0" width="67" height="20" />
        </clipPath>
        <g id="surface11" clip-path="url(#clip3)">
            <path style=" stroke:none;fill-rule:evenodd;fill:rgb(100%,100%,100%);fill-opacity:1;"
                d="M 6.183594 3.8125 L 15.820312 9.351562 C 16.136719 9.527344 16.3125 9.761719 16.339844 10 C 16.339844 9.738281 16.167969 9.476562 15.820312 9.277344 L 6.183594 3.738281 C 5.492188 3.339844 4.933594 3.671875 4.933594 4.472656 L 4.933594 4.542969 C 4.933594 3.746094 5.492188 3.417969 6.183594 3.8125 Z M 6.183594 3.8125 " />
        </g>
    </defs>
    <g id="surface1">
        <path style=" stroke:none;fill-rule:evenodd;fill:rgb(0%,0%,0%);fill-opacity:1;"
            d="M 64.515625 20 L 2.484375 20 C 1.117188 20 0 18.871094 0 17.5 L 0 2.5 C 0 1.121094 1.117188 0 2.484375 0 L 64.515625 0 C 65.882812 0 67 1.121094 67 2.5 L 67 17.5 C 67 18.871094 65.882812 20 64.515625 20 Z M 64.515625 20 " />
        <path style=" stroke:none;fill-rule:evenodd;fill:rgb(65.098039%,65.098039%,65.098039%);fill-opacity:1;"
            d="M 64.515625 0.398438 C 65.664062 0.398438 66.601562 1.34375 66.601562 2.5 L 66.601562 17.5 C 66.601562 18.65625 65.671875 19.601562 64.515625 19.601562 L 2.484375 19.601562 C 1.335938 19.601562 0.398438 18.65625 0.398438 17.5 L 0.398438 2.5 C 0.398438 1.34375 1.328125 0.398438 2.484375 0.398438 C 2.484375 0.398438 64.515625 0.398438 64.515625 0.398438 Z M 64.515625 0 L 2.484375 0 C 1.117188 0 0 1.128906 0 2.5 L 0 17.5 C 0 18.878906 1.117188 20 2.484375 20 L 64.515625 20 C 65.882812 20 67 18.878906 67 17.5 L 67 2.5 C 67 1.128906 65.882812 0 64.515625 0 Z M 64.515625 0 " />
        <path style=" stroke:none;fill-rule:nonzero;fill:rgb(100%,100%,100%);fill-opacity:1;"
            d="M 35.296875 6.617188 C 34.847656 6.617188 34.472656 6.457031 34.171875 6.144531 C 33.878906 5.84375 33.710938 5.425781 33.71875 5 C 33.71875 4.542969 33.871094 4.160156 34.171875 3.851562 C 34.46875 3.542969 34.847656 3.382812 35.292969 3.382812 C 35.738281 3.382812 36.113281 3.542969 36.417969 3.851562 C 36.71875 4.167969 36.871094 4.554688 36.871094 5 C 36.867188 5.457031 36.714844 5.839844 36.417969 6.144531 C 36.121094 6.457031 35.742188 6.617188 35.296875 6.617188 Z M 21.984375 6.617188 C 21.546875 6.617188 21.167969 6.460938 20.855469 6.152344 C 20.546875 5.84375 20.390625 5.457031 20.390625 5 C 20.390625 4.542969 20.546875 4.15625 20.855469 3.847656 C 21.160156 3.539062 21.539062 3.382812 21.984375 3.382812 C 22.199219 3.382812 22.410156 3.425781 22.613281 3.515625 C 22.8125 3.601562 22.972656 3.71875 23.09375 3.863281 L 23.121094 3.898438 L 22.789062 4.230469 L 22.753906 4.191406 C 22.566406 3.960938 22.3125 3.851562 21.976562 3.851562 C 21.679688 3.851562 21.421875 3.957031 21.207031 4.171875 C 20.988281 4.382812 20.878906 4.664062 20.878906 5 C 20.878906 5.339844 20.988281 5.617188 21.207031 5.832031 C 21.421875 6.042969 21.679688 6.152344 21.976562 6.152344 C 22.296875 6.152344 22.5625 6.042969 22.773438 5.832031 C 22.894531 5.707031 22.972656 5.53125 23 5.3125 L 21.929688 5.3125 L 21.929688 4.84375 L 23.457031 4.84375 L 23.464844 4.886719 C 23.476562 4.964844 23.488281 5.046875 23.488281 5.121094 C 23.488281 5.550781 23.359375 5.898438 23.105469 6.15625 C 22.816406 6.460938 22.4375 6.617188 21.984375 6.617188 Z M 39.683594 6.550781 L 39.210938 6.550781 L 37.765625 4.210938 L 37.777344 4.632812 L 37.777344 6.546875 L 37.304688 6.546875 L 37.304688 3.449219 L 37.84375 3.449219 L 37.859375 3.472656 L 39.21875 5.679688 L 39.207031 5.257812 L 39.207031 3.449219 L 39.683594 3.449219 Z M 31.75 6.550781 L 31.269531 6.550781 L 31.269531 3.917969 L 30.441406 3.917969 L 30.441406 3.449219 L 32.578125 3.449219 L 32.578125 3.917969 L 31.746094 3.917969 L 31.746094 6.550781 Z M 30.050781 6.550781 L 29.574219 6.550781 L 29.574219 3.449219 L 30.050781 3.449219 Z M 27.371094 6.550781 L 26.894531 6.550781 L 26.894531 3.917969 L 26.0625 3.917969 L 26.0625 3.449219 L 28.199219 3.449219 L 28.199219 3.917969 L 27.371094 3.917969 Z M 25.761719 6.542969 L 23.933594 6.542969 L 23.933594 3.449219 L 25.761719 3.449219 L 25.761719 3.917969 L 24.410156 3.917969 L 24.410156 4.765625 L 25.628906 4.765625 L 25.628906 5.226562 L 24.410156 5.226562 L 24.410156 6.078125 L 25.761719 6.078125 Z M 34.523438 5.824219 C 34.734375 6.042969 34.996094 6.148438 35.296875 6.148438 C 35.605469 6.148438 35.859375 6.042969 36.070312 5.824219 C 36.277344 5.613281 36.382812 5.335938 36.382812 5 C 36.382812 4.664062 36.277344 4.386719 36.070312 4.175781 C 35.855469 3.957031 35.597656 3.851562 35.296875 3.851562 C 34.988281 3.851562 34.734375 3.957031 34.527344 4.175781 C 34.316406 4.386719 34.210938 4.664062 34.210938 5 C 34.210938 5.335938 34.316406 5.613281 34.523438 5.824219 Z M 34.523438 5.824219 " />
        <path style=" stroke:none;fill-rule:evenodd;fill:rgb(100%,100%,100%);fill-opacity:1;"
            d="M 33.675781 10.878906 C 32.511719 10.878906 31.566406 11.773438 31.566406 13.003906 C 31.566406 14.226562 32.515625 15.132812 33.675781 15.132812 C 34.839844 15.132812 35.785156 14.230469 35.785156 13.003906 C 35.785156 11.773438 34.839844 10.878906 33.675781 10.878906 Z M 33.675781 14.289062 C 33.039062 14.289062 32.488281 13.753906 32.488281 13 C 32.488281 12.234375 33.039062 11.710938 33.675781 11.710938 C 34.3125 11.710938 34.859375 12.234375 34.859375 13 C 34.863281 13.761719 34.3125 14.289062 33.675781 14.289062 Z M 29.074219 10.878906 C 27.910156 10.878906 26.964844 11.773438 26.964844 13.003906 C 26.964844 14.226562 27.914062 15.132812 29.074219 15.132812 C 30.238281 15.132812 31.183594 14.230469 31.183594 13.003906 C 31.183594 11.773438 30.238281 10.878906 29.074219 10.878906 Z M 29.074219 14.289062 C 28.4375 14.289062 27.886719 13.753906 27.886719 13 C 27.886719 12.234375 28.4375 11.710938 29.074219 11.710938 C 29.710938 11.710938 30.257812 12.234375 30.257812 13 C 30.257812 13.761719 29.710938 14.289062 29.074219 14.289062 Z M 23.597656 11.527344 L 23.597656 12.425781 L 25.734375 12.425781 C 25.667969 12.933594 25.503906 13.304688 25.25 13.5625 C 24.9375 13.878906 24.457031 14.222656 23.605469 14.222656 C 22.292969 14.222656 21.265625 13.148438 21.265625 11.820312 C 21.265625 10.492188 22.292969 9.421875 23.605469 9.421875 C 24.3125 9.421875 24.828125 9.703125 25.210938 10.066406 L 25.84375 9.425781 C 25.3125 8.910156 24.601562 8.515625 23.609375 8.515625 C 21.808594 8.515625 20.296875 10 20.296875 11.816406 C 20.296875 13.636719 21.808594 15.117188 23.609375 15.117188 C 24.582031 15.117188 25.3125 14.796875 25.886719 14.191406 C 26.476562 13.59375 26.660156 12.753906 26.660156 12.078125 C 26.660156 11.867188 26.644531 11.679688 26.613281 11.515625 L 23.597656 11.515625 C 23.597656 11.515625 23.597656 11.527344 23.597656 11.527344 Z M 45.992188 12.226562 C 45.816406 11.75 45.285156 10.871094 44.191406 10.871094 C 43.109375 10.871094 42.210938 11.734375 42.210938 13 C 42.210938 14.195312 43.101562 15.128906 44.296875 15.128906 C 45.257812 15.128906 45.816406 14.53125 46.046875 14.183594 L 45.335938 13.699219 C 45.097656 14.054688 44.769531 14.289062 44.300781 14.289062 C 43.828125 14.289062 43.5 14.070312 43.28125 13.644531 L 46.089844 12.464844 C 46.089844 12.464844 45.992188 12.226562 45.992188 12.226562 Z M 43.125 12.9375 C 43.105469 12.117188 43.757812 11.699219 44.222656 11.699219 C 44.59375 11.699219 44.898438 11.882812 45.003906 12.148438 Z M 40.84375 15 L 41.765625 15 L 41.765625 8.75 L 40.84375 8.75 Z M 39.324219 11.351562 L 39.292969 11.351562 C 39.085938 11.101562 38.6875 10.871094 38.183594 10.871094 C 37.132812 10.871094 36.167969 11.808594 36.167969 13.007812 C 36.167969 14.199219 37.128906 15.125 38.183594 15.125 C 38.683594 15.125 39.085938 14.894531 39.292969 14.640625 L 39.324219 14.640625 L 39.324219 14.945312 C 39.324219 15.757812 38.898438 16.195312 38.207031 16.195312 C 37.640625 16.195312 37.289062 15.78125 37.144531 15.4375 L 36.34375 15.777344 C 36.574219 16.339844 37.1875 17.035156 38.203125 17.035156 C 39.285156 17.035156 40.203125 16.390625 40.203125 14.816406 L 40.203125 11 L 39.332031 11 L 39.332031 11.351562 C 39.332031 11.351562 39.324219 11.351562 39.324219 11.351562 Z M 38.265625 14.289062 C 37.628906 14.289062 37.097656 13.75 37.097656 13.007812 C 37.097656 12.253906 37.628906 11.710938 38.265625 11.710938 C 38.898438 11.710938 39.386719 12.261719 39.386719 13.007812 C 39.394531 13.75 38.898438 14.289062 38.265625 14.289062 Z M 50.316406 8.75 L 48.109375 8.75 L 48.109375 15 L 49.03125 15 L 49.03125 12.632812 L 50.316406 12.632812 C 51.339844 12.632812 52.34375 11.882812 52.34375 10.695312 C 52.34375 9.503906 51.34375 8.75 50.316406 8.75 Z M 50.34375 11.761719 L 49.03125 11.761719 L 49.03125 9.617188 L 50.34375 9.617188 C 51.035156 9.617188 51.425781 10.191406 51.425781 10.6875 C 51.425781 11.179688 51.027344 11.761719 50.34375 11.761719 Z M 56.042969 10.867188 C 55.371094 10.867188 54.679688 11.167969 54.394531 11.820312 L 55.214844 12.164062 C 55.390625 11.820312 55.710938 11.703125 56.054688 11.703125 C 56.53125 11.703125 57.015625 11.992188 57.027344 12.511719 L 57.027344 12.574219 C 56.859375 12.480469 56.5 12.335938 56.066406 12.335938 C 55.179688 12.335938 54.285156 12.824219 54.285156 13.742188 C 54.285156 14.582031 55.011719 15.121094 55.816406 15.121094 C 56.4375 15.121094 56.777344 14.835938 56.992188 14.507812 L 57.023438 14.507812 L 57.023438 14.992188 L 57.914062 14.992188 L 57.914062 12.597656 C 57.914062 11.484375 57.097656 10.867188 56.042969 10.867188 Z M 55.925781 14.289062 C 55.625 14.289062 55.203125 14.140625 55.203125 13.753906 C 55.203125 13.273438 55.730469 13.089844 56.179688 13.089844 C 56.585938 13.089844 56.777344 13.175781 57.019531 13.300781 C 56.953125 13.859375 56.484375 14.285156 55.925781 14.289062 Z M 61.160156 11 L 60.101562 13.710938 L 60.066406 13.710938 L 58.96875 11 L 57.976562 11 L 59.625 14.789062 L 58.683594 16.894531 L 59.648438 16.894531 L 62.183594 11 C 62.183594 11 61.160156 11 61.160156 11 Z M 52.851562 15 L 53.773438 15 L 53.773438 8.75 L 52.851562 8.75 Z M 52.851562 15 " />
        <path style=" stroke:none;fill-rule:evenodd;fill:url(#linear0);"
            d="M 5.15625 3.765625 C 5.015625 3.921875 4.933594 4.160156 4.933594 4.472656 L 4.933594 15.527344 C 4.933594 15.839844 5.015625 16.078125 5.164062 16.226562 L 5.203125 16.261719 L 11.324219 10.066406 L 11.324219 9.929688 L 5.195312 3.734375 C 5.195312 3.734375 5.15625 3.765625 5.15625 3.765625 Z M 5.15625 3.765625 " />
        <path style=" stroke:none;fill-rule:evenodd;fill:url(#linear1);"
            d="M 13.363281 12.136719 L 11.320312 10.074219 L 11.320312 9.925781 L 13.363281 7.863281 L 13.40625 7.890625 L 15.820312 9.277344 C 16.511719 9.671875 16.511719 10.324219 15.820312 10.722656 L 13.40625 12.109375 C 13.40625 12.109375 13.363281 12.136719 13.363281 12.136719 Z M 13.363281 12.136719 " />
        <path style=" stroke:none;fill-rule:evenodd;fill:url(#linear2);"
            d="M 13.40625 12.109375 L 11.320312 10 L 5.15625 16.234375 C 5.382812 16.476562 5.761719 16.503906 6.183594 16.265625 L 13.40625 12.109375 " />
        <path style=" stroke:none;fill-rule:evenodd;fill:url(#linear3);"
            d="M 13.40625 7.890625 L 6.183594 3.738281 C 5.761719 3.496094 5.382812 3.527344 5.15625 3.773438 L 11.320312 10 Z M 13.40625 7.890625 " />
        <use xlink:href="#surface5" mask="url(#mask0)" />
        <use xlink:href="#surface8" mask="url(#mask1)" />
        <use xlink:href="#surface11" mask="url(#mask2)" />
    </g>
</svg>
